<!-- icon666.com - MILLIONS vector ICONS FREE --><svg id="Layer_1" enable-background="new 0 0 512 512" viewBox="0 0 512 512" xmlns="http://www.w3.org/2000/svg"><g><g clip-rule="evenodd" fill-rule="evenodd"><path d="m328.75 435c3.01-17.786 14.937-58-14.75-58h-116c-29.688 0-17.76 40.213-14.75 58 5.735 33.893 38.375 67 72.75 67s67.015-33.107 72.75-67z" fill="#ff7d97"></path><path d="m198 377h116 10c10.813 0 19.66-8.847 19.66-19.66 0-52.51.209-111.45-6.42-168.038 44.4-5.533 78.759-43.404 78.759-89.302 0-49.706-40.294-90-90-90-28.275 0-53.5 13.043-69.999 33.435-16.5-20.392-41.724-33.435-69.999-33.435-49.705 0-90 40.294-90 90 0 45.898 34.359 83.769 78.757 89.302-6.627 56.588-6.418 115.528-6.418 168.038 0 10.813 8.847 19.66 19.66 19.66z" fill="#ffd0c7"></path></g><g><path d="m325.999 0c-26.444 0-51.383 10.294-69.999 28.582-18.616-18.288-43.555-28.582-69.999-28.582-55.14 0-100 44.859-100 100 0 46.818 32.89 87.298 77.795 97.507-5.463 52.543-5.463 106.448-5.457 155.165v4.668c0 10.436 5.422 19.623 13.593 24.912-6.555 13.775-2.73 33.046.164 47.619.496 2.496.964 4.854 1.293 6.798 3.154 18.642 13.582 37.52 28.608 51.792 15.982 15.179 35.16 23.539 54.003 23.539s38.021-8.36 54.002-23.54c15.026-14.273 25.454-33.15 28.607-51.791.329-1.944.797-4.301 1.292-6.796 2.895-14.573 6.72-33.846.165-47.622 8.171-5.288 13.593-14.476 13.593-24.912v-4.671c.006-49.363.003-102.964-5.431-155.168 20.453-4.654 39.048-15.692 53.018-31.64 15.961-18.222 24.751-41.611 24.751-65.86.002-55.141-44.858-100-99.998-100zm-5.713 425.977c-.524 2.639-1.019 5.131-1.396 7.355-4.574 27.03-28.353 51.927-52.89 57.5v-20.333c0-5.522-4.477-10-10-10s-10 4.478-10 10v20.333c-24.537-5.573-48.317-30.469-52.891-57.5-.376-2.226-.872-4.719-1.396-7.358-2.102-10.581-6.013-30.278-.768-36.667.468-.57 1.893-2.307 7.054-2.307h116c5.161 0 6.586 1.736 7.054 2.307 5.247 6.389 1.335 26.088-.767 36.67zm25.574-248.487c-2.938-21.975-6.974-43.571-12.541-64.349-1.43-5.334-6.911-8.503-12.248-7.071-5.334 1.43-8.5 6.913-7.071 12.247 19.679 73.445 19.669 158.929 19.661 234.349v4.674c0 5.326-4.333 9.66-9.66 9.66h-10-116.001-10c-5.327 0-9.66-4.334-9.66-9.66v-4.67c-.007-60.232-.015-128.501 10.448-191.286.908-5.447-2.773-10.6-8.221-11.508-5.442-.905-10.6 2.772-11.508 8.221-1.07 6.423-2.03 12.895-2.897 19.4-34.854-8.916-60.16-40.762-60.16-77.497 0-44.112 35.888-80 80-80 24.26 0 46.94 10.835 62.225 29.726 1.898 2.347 4.755 3.71 7.774 3.71s5.875-1.363 7.774-3.71c15.284-18.891 37.964-29.726 62.224-29.726 44.112 0 80 35.888 80 80 0 36.681-25.312 68.563-60.139 77.49z"></path><path d="m303.802 316.998c-3.827 0-5.473-.666-8.198-1.77-3.556-1.439-7.981-3.23-15.703-3.23s-12.147 1.791-15.703 3.23c-2.726 1.104-4.371 1.77-8.199 1.77s-5.473-.666-8.199-1.77c-3.555-1.439-7.98-3.23-15.702-3.23s-12.147 1.791-15.703 3.23c-2.726 1.104-4.371 1.77-8.199 1.77-5.523 0-10 4.478-10 10s4.477 10 10 10c7.722 0 12.147-1.791 15.703-3.23 2.726-1.104 4.371-1.77 8.199-1.77 3.827 0 5.472.666 8.198 1.77 3.556 1.439 7.981 3.23 15.703 3.23s12.147-1.791 15.703-3.23c2.726-1.104 4.371-1.77 8.198-1.77 3.828 0 5.473.666 8.199 1.77 3.556 1.439 7.981 3.23 15.703 3.23 5.523 0 10-4.478 10-10s-4.477-10-10-10z"></path><path d="m188.34 105.729h-.007c-5.523 0-9.996 4.478-9.996 10s4.48 10 10.003 10 10-4.478 10-10-4.477-10-10-10z"></path></g></g></svg>